<svg xmlns="http://www.w3.org/2000/svg" width="1847.533" height="1040.302" viewBox="0 0 1847.533 1040.302"><defs><style>.a{fill:#007af9;opacity:0.9;}</style></defs><path class="a" d="M774.49,1375.686a89.162,89.162,0,0,1-27.135,47.6l-243.6,222.841c-119.148,108.836-106.761,143.148-228.946,37.793L47.873,1488.524a137.5,137.5,0,0,1-43.8-137.344L74.607,250.142a321,321,0,0,1,78.208-135.675,54.486,54.486,0,0,1,5.159-4.7c19.1-16.372,56.54-35.318,98.382-53.66,7.422-3.183,15.007-6.37,22.587-9.548,21.984-9.253,44.409-18.04,65.636-26.076a.474.474,0,0,0,.308-.156C361.863,14.119,377.93,8.2,392.184,3.2c1.514-.451,3.024-1.054,4.543-1.365a.574.574,0,0,0,.458-.146A57.091,57.091,0,0,1,415.374.169a54.979,54.979,0,0,1,35.468,17.893,53.859,53.859,0,0,1,12.744,23.947l310.45,1294.263A88.914,88.914,0,0,1,774.49,1375.686Z" transform="translate(0 766.92) rotate(-81)"/></svg>