<svg xmlns="http://www.w3.org/2000/svg" width="1364.595" height="1098.806" viewBox="0 0 1364.595 1098.806"><defs><style>.a{fill:#007af9;opacity:0.55;mix-blend-mode:overlay;isolation:isolate;}</style></defs><path class="a" d="M669.314,950.584a61.609,61.609,0,0,1-18.75,32.889L482.237,1137.454c-82.33,75.2-207.92,77.09-292.349,4.291L33.08,1006.73a95.014,95.014,0,0,1-30.266-94.9L185.7,172.846A221.81,221.81,0,0,1,239.743,79.1a37.648,37.648,0,0,1,3.565-3.245c13.2-11.313,39.069-24.4,67.981-37.078,5.129-2.2,10.37-4.4,15.608-6.6,15.191-6.394,30.686-12.465,45.353-18.018a.327.327,0,0,0,.213-.108C384.193,9.756,395.3,5.67,405.145,2.211c1.046-.312,2.09-.729,3.139-.943a.4.4,0,0,0,.316-.1A39.451,39.451,0,0,1,421.169.117,37.988,37.988,0,0,1,445.677,12.48a37.218,37.218,0,0,1,8.806,16.548L669,923.349A61.437,61.437,0,0,1,669.314,950.584Z" transform="matrix(-0.407, -0.914, 0.914, -0.407, 272.794, 1098.806)"/></svg>